<svg width="18" height="18" viewBox="0 0 18 18" fill="none" xmlns="http://www.w3.org/2000/svg">
<path d="M0.75 16.75V0.75" stroke="white" stroke-width="1.5" stroke-linecap="round" stroke-linejoin="round"/>
<path d="M16.75 0.75V16.75" stroke="white" stroke-width="1.5" stroke-linecap="round" stroke-linejoin="round"/>
<path d="M5.0166 0.75H12.4833V7.15H5.0166V0.75Z" stroke="white" stroke-width="1.5" stroke-linecap="round" stroke-linejoin="round"/>
<path d="M5.0166 10.35H12.4833V16.75H5.0166V10.35Z" stroke="white" stroke-width="1.5" stroke-linecap="round" stroke-linejoin="round"/>
<path d="M3.15003 2.35001C3.15003 2.40275 3.13439 2.45431 3.10509 2.49816C3.07579 2.54202 3.03414 2.57619 2.98541 2.59638C2.93669 2.61656 2.88307 2.62184 2.83134 2.61155C2.77961 2.60126 2.7321 2.57587 2.6948 2.53857C2.65751 2.50128 2.63211 2.45376 2.62182 2.40203C2.61153 2.35031 2.61681 2.29669 2.637 2.24796C2.65718 2.19923 2.69136 2.15759 2.73521 2.12828C2.77907 2.09898 2.83062 2.08334 2.88337 2.08334C2.95409 2.08334 3.02192 2.11144 3.07193 2.16145C3.12194 2.21146 3.15003 2.27929 3.15003 2.35001Z" stroke="white" stroke-width="1.5" stroke-linecap="round" stroke-linejoin="round"/>
<path d="M3.15003 6.61667C3.15003 6.66941 3.13439 6.72097 3.10509 6.76482C3.07579 6.80868 3.03414 6.84286 2.98541 6.86304C2.93669 6.88322 2.88307 6.8885 2.83134 6.87822C2.77961 6.86793 2.7321 6.84253 2.6948 6.80523C2.65751 6.76794 2.63211 6.72043 2.62182 6.6687C2.61153 6.61697 2.61681 6.56335 2.637 6.51462C2.65718 6.4659 2.69136 6.42425 2.73521 6.39495C2.77907 6.36565 2.83062 6.35001 2.88337 6.35001C2.95409 6.35001 3.02192 6.3781 3.07193 6.42811C3.12194 6.47812 3.15003 6.54595 3.15003 6.61667Z" stroke="white" stroke-width="1.5" stroke-linecap="round" stroke-linejoin="round"/>
<path d="M3.15003 10.8833C3.15003 10.9361 3.13439 10.9876 3.10509 11.0315C3.07579 11.0753 3.03414 11.1095 2.98541 11.1297C2.93669 11.1499 2.88307 11.1552 2.83134 11.1449C2.77961 11.1346 2.7321 11.1092 2.6948 11.0719C2.65751 11.0346 2.63211 10.9871 2.62182 10.9354C2.61153 10.8836 2.61681 10.83 2.637 10.7813C2.65718 10.7326 2.69136 10.6909 2.73521 10.6616C2.77907 10.6323 2.83062 10.6167 2.88337 10.6167C2.95409 10.6167 3.02192 10.6448 3.07193 10.6948C3.12194 10.7448 3.15003 10.8126 3.15003 10.8833Z" stroke="white" stroke-width="1.5" stroke-linecap="round" stroke-linejoin="round"/>
<path d="M3.15003 15.15C3.15003 15.2027 3.13439 15.2543 3.10509 15.2982C3.07579 15.342 3.03414 15.3762 2.98541 15.3964C2.93669 15.4165 2.88307 15.4218 2.83134 15.4115C2.77961 15.4013 2.7321 15.3759 2.6948 15.3386C2.65751 15.3013 2.63211 15.2537 2.62182 15.202C2.61153 15.1503 2.61681 15.0967 2.637 15.0479C2.65718 14.9992 2.69136 14.9576 2.73521 14.9283C2.77907 14.899 2.83062 14.8833 2.88337 14.8833C2.95409 14.8833 3.02192 14.9114 3.07193 14.9614C3.12194 15.0114 3.15003 15.0793 3.15003 15.15Z" stroke="white" stroke-width="1.5" stroke-linecap="round" stroke-linejoin="round"/>
<path d="M14.8834 2.35001C14.8834 2.40275 14.8678 2.45431 14.8385 2.49816C14.8092 2.54202 14.7675 2.57619 14.7188 2.59638C14.6701 2.61656 14.6165 2.62184 14.5647 2.61155C14.513 2.60126 14.4655 2.57587 14.4282 2.53857C14.3909 2.50128 14.3655 2.45376 14.3552 2.40203C14.3449 2.35031 14.3502 2.29669 14.3704 2.24796C14.3906 2.19923 14.4248 2.15759 14.4686 2.12828C14.5125 2.09898 14.564 2.08334 14.6168 2.08334C14.6875 2.08334 14.7553 2.11144 14.8053 2.16145C14.8553 2.21146 14.8834 2.27929 14.8834 2.35001Z" stroke="white" stroke-width="1.5" stroke-linecap="round" stroke-linejoin="round"/>
<path d="M14.8834 6.61667C14.8834 6.66941 14.8678 6.72097 14.8385 6.76482C14.8092 6.80868 14.7675 6.84286 14.7188 6.86304C14.6701 6.88322 14.6165 6.8885 14.5647 6.87822C14.513 6.86793 14.4655 6.84253 14.4282 6.80523C14.3909 6.76794 14.3655 6.72043 14.3552 6.6687C14.3449 6.61697 14.3502 6.56335 14.3704 6.51462C14.3906 6.4659 14.4248 6.42425 14.4686 6.39495C14.5125 6.36565 14.564 6.35001 14.6168 6.35001C14.6875 6.35001 14.7553 6.3781 14.8053 6.42811C14.8553 6.47812 14.8834 6.54595 14.8834 6.61667Z" stroke="white" stroke-width="1.5" stroke-linecap="round" stroke-linejoin="round"/>
<path d="M14.8834 10.8833C14.8834 10.9361 14.8678 10.9876 14.8385 11.0315C14.8092 11.0753 14.7675 11.1095 14.7188 11.1297C14.6701 11.1499 14.6165 11.1552 14.5647 11.1449C14.513 11.1346 14.4655 11.1092 14.4282 11.0719C14.3909 11.0346 14.3655 10.9871 14.3552 10.9354C14.3449 10.8836 14.3502 10.83 14.3704 10.7813C14.3906 10.7326 14.4248 10.6909 14.4686 10.6616C14.5125 10.6323 14.564 10.6167 14.6168 10.6167C14.6875 10.6167 14.7553 10.6448 14.8053 10.6948C14.8553 10.7448 14.8834 10.8126 14.8834 10.8833Z" stroke="white" stroke-width="1.5" stroke-linecap="round" stroke-linejoin="round"/>
<path d="M14.8834 15.15C14.8834 15.2027 14.8678 15.2543 14.8385 15.2982C14.8092 15.342 14.7675 15.3762 14.7188 15.3964C14.6701 15.4165 14.6165 15.4218 14.5647 15.4115C14.513 15.4013 14.4655 15.3759 14.4282 15.3386C14.3909 15.3013 14.3655 15.2537 14.3552 15.202C14.3449 15.1503 14.3502 15.0967 14.3704 15.0479C14.3906 14.9992 14.4248 14.9576 14.4686 14.9283C14.5125 14.899 14.564 14.8833 14.6168 14.8833C14.6875 14.8833 14.7553 14.9114 14.8053 14.9614C14.8553 15.0114 14.8834 15.0793 14.8834 15.15Z" stroke="white" stroke-width="1.5" stroke-linecap="round" stroke-linejoin="round"/>
</svg>
