<svg width="32" height="32" viewBox="0 0 32 32" fill="none" xmlns="http://www.w3.org/2000/svg">
<path d="M8 24V8" stroke="white" stroke-width="1.5" stroke-linecap="round" stroke-linejoin="round"/>
<path d="M24 8V24" stroke="white" stroke-width="1.5" stroke-linecap="round" stroke-linejoin="round"/>
<path d="M12.2666 8H19.7333V14.4H12.2666V8Z" stroke="white" stroke-width="1.5" stroke-linecap="round" stroke-linejoin="round"/>
<path d="M12.2666 17.6H19.7333V24H12.2666V17.6Z" stroke="white" stroke-width="1.5" stroke-linecap="round" stroke-linejoin="round"/>
<path d="M10.4 9.60001C10.4 9.65275 10.3844 9.70431 10.3551 9.74816C10.3258 9.79202 10.2841 9.82619 10.2354 9.84638C10.1867 9.86656 10.1331 9.87184 10.0813 9.86155C10.0296 9.85126 9.9821 9.82587 9.9448 9.78857C9.90751 9.75128 9.88211 9.70376 9.87182 9.65203C9.86153 9.60031 9.86681 9.54669 9.887 9.49796C9.90718 9.44923 9.94136 9.40759 9.98521 9.37828C10.0291 9.34898 10.0806 9.33334 10.1334 9.33334C10.2041 9.33334 10.2719 9.36144 10.3219 9.41145C10.3719 9.46146 10.4 9.52929 10.4 9.60001Z" stroke="white" stroke-width="1.5" stroke-linecap="round" stroke-linejoin="round"/>
<path d="M10.4 13.8667C10.4 13.9194 10.3844 13.971 10.3551 14.0148C10.3258 14.0587 10.2841 14.0929 10.2354 14.113C10.1867 14.1332 10.1331 14.1385 10.0813 14.1282C10.0296 14.1179 9.9821 14.0925 9.9448 14.0552C9.90751 14.0179 9.88211 13.9704 9.87182 13.9187C9.86153 13.867 9.86681 13.8134 9.887 13.7646C9.90718 13.7159 9.94136 13.6742 9.98521 13.6449C10.0291 13.6156 10.0806 13.6 10.1334 13.6C10.2041 13.6 10.2719 13.6281 10.3219 13.6781C10.3719 13.7281 10.4 13.7959 10.4 13.8667Z" stroke="white" stroke-width="1.5" stroke-linecap="round" stroke-linejoin="round"/>
<path d="M10.4 18.1333C10.4 18.1861 10.3844 18.2376 10.3551 18.2815C10.3258 18.3253 10.2841 18.3595 10.2354 18.3797C10.1867 18.3999 10.1331 18.4052 10.0813 18.3949C10.0296 18.3846 9.9821 18.3592 9.9448 18.3219C9.90751 18.2846 9.88211 18.2371 9.87182 18.1854C9.86153 18.1336 9.86681 18.08 9.887 18.0313C9.90718 17.9826 9.94136 17.9409 9.98521 17.9116C10.0291 17.8823 10.0806 17.8667 10.1334 17.8667C10.2041 17.8667 10.2719 17.8948 10.3219 17.9448C10.3719 17.9948 10.4 18.0626 10.4 18.1333Z" stroke="white" stroke-width="1.5" stroke-linecap="round" stroke-linejoin="round"/>
<path d="M10.4 22.4C10.4 22.4527 10.3844 22.5043 10.3551 22.5482C10.3258 22.592 10.2841 22.6262 10.2354 22.6464C10.1867 22.6665 10.1331 22.6718 10.0813 22.6615C10.0296 22.6513 9.9821 22.6259 9.9448 22.5886C9.90751 22.5513 9.88211 22.5037 9.87182 22.452C9.86153 22.4003 9.86681 22.3467 9.887 22.2979C9.90718 22.2492 9.94136 22.2076 9.98521 22.1783C10.0291 22.149 10.0806 22.1333 10.1334 22.1333C10.2041 22.1333 10.2719 22.1614 10.3219 22.2114C10.3719 22.2614 10.4 22.3293 10.4 22.4Z" stroke="white" stroke-width="1.5" stroke-linecap="round" stroke-linejoin="round"/>
<path d="M22.1334 9.60001C22.1334 9.65275 22.1178 9.70431 22.0885 9.74816C22.0592 9.79202 22.0175 9.82619 21.9688 9.84638C21.9201 9.86656 21.8665 9.87184 21.8147 9.86155C21.763 9.85126 21.7155 9.82587 21.6782 9.78857C21.6409 9.75128 21.6155 9.70376 21.6052 9.65203C21.5949 9.60031 21.6002 9.54669 21.6204 9.49796C21.6406 9.44923 21.6748 9.40759 21.7186 9.37828C21.7625 9.34898 21.814 9.33334 21.8668 9.33334C21.9375 9.33334 22.0053 9.36144 22.0553 9.41145C22.1053 9.46146 22.1334 9.52929 22.1334 9.60001Z" stroke="white" stroke-width="1.5" stroke-linecap="round" stroke-linejoin="round"/>
<path d="M22.1334 13.8667C22.1334 13.9194 22.1178 13.971 22.0885 14.0148C22.0592 14.0587 22.0175 14.0929 21.9688 14.113C21.9201 14.1332 21.8665 14.1385 21.8147 14.1282C21.763 14.1179 21.7155 14.0925 21.6782 14.0552C21.6409 14.0179 21.6155 13.9704 21.6052 13.9187C21.5949 13.867 21.6002 13.8134 21.6204 13.7646C21.6406 13.7159 21.6748 13.6742 21.7186 13.6449C21.7625 13.6156 21.814 13.6 21.8668 13.6C21.9375 13.6 22.0053 13.6281 22.0553 13.6781C22.1053 13.7281 22.1334 13.7959 22.1334 13.8667Z" stroke="white" stroke-width="1.5" stroke-linecap="round" stroke-linejoin="round"/>
<path d="M22.1334 18.1333C22.1334 18.1861 22.1178 18.2376 22.0885 18.2815C22.0592 18.3253 22.0175 18.3595 21.9688 18.3797C21.9201 18.3999 21.8665 18.4052 21.8147 18.3949C21.763 18.3846 21.7155 18.3592 21.6782 18.3219C21.6409 18.2846 21.6155 18.2371 21.6052 18.1854C21.5949 18.1336 21.6002 18.08 21.6204 18.0313C21.6406 17.9826 21.6748 17.9409 21.7186 17.9116C21.7625 17.8823 21.814 17.8667 21.8668 17.8667C21.9375 17.8667 22.0053 17.8948 22.0553 17.9448C22.1053 17.9948 22.1334 18.0626 22.1334 18.1333Z" stroke="white" stroke-width="1.5" stroke-linecap="round" stroke-linejoin="round"/>
<path d="M22.1334 22.4C22.1334 22.4527 22.1178 22.5043 22.0885 22.5482C22.0592 22.592 22.0175 22.6262 21.9688 22.6464C21.9201 22.6665 21.8665 22.6718 21.8147 22.6615C21.763 22.6513 21.7155 22.6259 21.6782 22.5886C21.6409 22.5513 21.6155 22.5037 21.6052 22.452C21.5949 22.4003 21.6002 22.3467 21.6204 22.2979C21.6406 22.2492 21.6748 22.2076 21.7186 22.1783C21.7625 22.149 21.814 22.1333 21.8668 22.1333C21.9375 22.1333 22.0053 22.1614 22.0553 22.2114C22.1053 22.2614 22.1334 22.3293 22.1334 22.4Z" stroke="white" stroke-width="1.5" stroke-linecap="round" stroke-linejoin="round"/>
</svg>
