<svg width="32" height="32" viewBox="0 0 32 32" fill="none" xmlns="http://www.w3.org/2000/svg">
<path d="M8.38452 9.59999H23.6153V20.7692H8.38452V9.59999Z" stroke="white" stroke-width="1.5" stroke-linecap="round" stroke-linejoin="round"/>
<path d="M18.5383 9.59999V20.7692" stroke="white" stroke-width="1.5" stroke-linecap="round" stroke-linejoin="round"/>
<path d="M20.5691 15.6923H21.5845" stroke="white" stroke-width="1.5" stroke-linecap="round" stroke-linejoin="round"/>
<path d="M20.5691 17.7231H21.5845" stroke="white" stroke-width="1.5" stroke-linecap="round" stroke-linejoin="round"/>
<path d="M21.0768 12.9C21.1271 12.9 21.1761 12.9149 21.2179 12.9428C21.2596 12.9707 21.2922 13.0103 21.3114 13.0567C21.3306 13.1031 21.3356 13.1541 21.3258 13.2034C21.316 13.2526 21.2918 13.2978 21.2563 13.3333C21.2208 13.3688 21.1756 13.393 21.1264 13.4028C21.0771 13.4126 21.0261 13.4076 20.9797 13.3884C20.9333 13.3691 20.8937 13.3366 20.8658 13.2949C20.8379 13.2531 20.823 13.204 20.823 13.1538C20.823 13.0865 20.8497 13.0219 20.8973 12.9743C20.945 12.9267 21.0095 12.9 21.0768 12.9" stroke="white" stroke-width="1.5" stroke-linecap="round" stroke-linejoin="round"/>
<path d="M9.3999 22.8L11.4307 20.7692" stroke="white" stroke-width="1.5" stroke-linecap="round" stroke-linejoin="round"/>
<path d="M22.5999 22.8L20.5691 20.7692" stroke="white" stroke-width="1.5" stroke-linecap="round" stroke-linejoin="round"/>
</svg>
